Fly_normalized_Motion_pl03
version=1
nRows=14
nColumns=43
inDegrees=yes
endheader
time		pelvis_tilt		pelvis_list		pelvis_rotation		pelvis_tx		pelvis_ty		pelvis_tz		hip_flexion_r		hip_adduction_r		hip_rotation_r		knee_angle_r		ankle_angle_r		subtalar_angle_r		mtp_angle_r		hip_flexion_l		hip_adduction_l		hip_rotation_l		knee_angle_l		ankle_angle_l		subtalar_angle_l		mtp_angle_l		lumbar_extension		lumbar_bending		lumbar_rotation		neck_flexion		neck_lateral_bending		neck_rotation		arm_flex_r		arm_add_r		arm_rot_r		elbow_flex_r		pro_sup_r		wrist_flex_r		wrist_dev_r		hand_finger_flex_r		arm_flex_l		arm_add_l		arm_rot_l		elbow_flex_l		pro_sup_l		wrist_flex_l		wrist_dev_l		hand_finger_flex_l		
2.880000		5.503966		-4.890101		96.370612		-0.037276		1.364084		0.818766		34.300922		-3.403421		-17.512730		-27.150558		-17.863582		8.912774		30.759033		30.738894		-8.360224		-11.718475		-26.225751		-21.709984		4.999276		12.580168		-24.672114		6.104033		1.696562		-16.730394		3.464419		-5.260819		-44.328123		-38.054857		-13.355850		70.009906		124.912768		7.730266		-1.183757		-32.921108		-75.090378		-49.052012		-35.390767		96.898393		141.775450		-2.074876		-5.432801		-19.645617		
2.884015		5.483900		-4.730986		96.379717		-0.037318		1.352892		0.809718		33.658045		-3.313197		-17.796870		-26.158184		-17.920371		8.604362		30.738323		30.143955		-8.249161		-11.967595		-24.993231		-21.724215		4.635769		12.579587		-24.272114		6.089715		1.618818		-17.381557		3.299796		-5.139283		-47.008609		-37.214513		-14.280180		69.930093		124.835745		7.360466		-1.308191		-32.950082		-78.160478		-47.580507		-36.438196		96.717547		141.866449		-2.365496		-5.635513		-19.755360		
2.888030		5.460601		-4.550998		96.377881		-0.037231		1.341629		0.800695		33.020764		-3.212217		-18.076045		-25.235440		-17.925253		8.248417		30.717809		29.555156		-8.165430		-12.192654		-23.828155		-21.727831		4.259121		12.589178		-23.921291		6.057196		1.550682		-18.018795		3.175713		-5.029008		-49.548737		-36.323222		-15.142250		69.767948		124.774233		6.968678		-1.452861		-32.980184		-80.989055		-46.070903		-37.347707		96.447963		141.954869		-2.581887		-5.869725		-19.857207		
2.892045		5.443320		-4.349236		96.374045		-0.037109		1.330298		0.791726		32.398578		-3.102280		-18.342468		-24.408769		-17.884074		7.871245		30.696394		28.966441		-8.103399		-12.385270		-22.724994		-21.738524		3.889081		12.611310		-23.612584		6.023305		1.490637		-18.677944		3.085984		-4.947657		-51.941908		-35.389045		-15.926354		69.521189		124.729185		6.567547		-1.603575		-33.011671		-83.547882		-44.533779		-38.114852		96.107628		142.049218		-2.681203		-6.142987		-19.925148		
2.896061		5.432004		-4.085111		96.407383		-0.037028		1.318940		0.782853		31.754692		-2.981302		-18.519874		-23.689060		-17.852684		7.466506		30.668098		28.348382		-8.044422		-12.542845		-21.675347		-21.781999		3.497786		12.658434		-23.378863		6.010260		1.453832		-19.423339		3.047489		-4.893280		-54.236712		-34.413905		-16.693333		69.182930		124.708006		6.143697		-1.765139		-33.024119		-85.847996		-42.996613		-38.835896		95.755848		142.186454		-2.629676		-6.518177		-19.941677		
2.900076		5.407912		-3.830362		96.383233		-0.036867		1.307513		0.774067		31.160862		-2.871177		-18.698479		-23.043867		-17.760536		7.109841		30.634880		27.742687		-8.000255		-12.637178		-20.670146		-21.820156		3.138095		12.726166		-23.163470		5.951679		1.439639		-20.066429		3.044322		-4.888650		-56.341372		-33.424127		-17.346298		68.779878		124.713234		5.772350		-1.890424		-33.004513		-87.890670		-41.490695		-39.373253		95.294993		142.374222		-2.403958		-6.904187		-19.893204		
2.904091		5.367928		-3.680736		96.363922		-0.036690		1.295819		0.765396		30.749957		-2.803633		-18.822430		-22.522788		-17.567938		7.018273		30.618185		27.348636		-7.945051		-12.666966		-19.880027		-21.811071		2.935783		12.754578		-22.885834		5.874846		1.398954		-20.450501		3.004589		-4.898894		-58.222518		-32.538403		-17.766018		68.270316		124.712013		5.581897		-1.852533		-33.014079		-89.586116		-40.036079		-39.638076		94.681313		142.500445		-2.200901		-7.028029		-19.828589		
2.908106		5.327936		-3.517667		96.367472		-0.036790		1.283901		0.757079		30.370193		-2.767873		-18.839927		-22.054654		-17.398757		6.992480		30.602572		27.013840		-7.859865		-12.681775		-19.208195		-21.809507		2.752673		12.780178		-22.659522		5.846078		1.389246		-20.838506		2.974186		-4.884846		-59.973397		-31.632431		-18.113273		67.748107		124.721012		5.423970		-1.816086		-33.015749		-91.114211		-38.650552		-39.840271		94.072304		142.637432		-1.983570		-7.144111		-19.754401		
2.912121		5.329404		-3.339393		96.368139		-0.036499		1.271869		0.748740		29.996090		-2.662434		-18.781310		-21.602917		-17.272954		7.015293		30.582510		26.614501		-7.836267		-12.677267		-18.402763		-21.794470		2.524233		12.813253		-22.410305		5.783785		1.349475		-21.405904		2.949270		-4.835796		-61.676698		-30.636230		-18.643981		67.264608		124.742223		5.186079		-1.822961		-33.021912		-92.573391		-37.175615		-40.141799		93.532409		142.825543		-1.733009		-7.327141		-19.659488		
2.916136		5.362020		-3.160540		96.332206		-0.036318		1.259629		0.740487		29.643012		-2.504032		-18.531329		-21.178545		-17.217654		7.151746		30.553805		26.170508		-7.817062		-12.639039		-17.510054		-21.763222		2.271405		12.864774		-22.174203		5.768340		1.354433		-22.258732		2.926503		-4.712862		-63.179583		-29.483087		-19.317373		66.795829		124.818419		4.871106		-1.952422		-33.004368		-93.829785		-35.596993		-40.464496		92.994334		143.125666		-1.391867		-7.603077		-19.516658		
2.920152		5.360465		-2.991099		96.268132		-0.035963		1.247384		0.732200		29.306860		-2.335717		-18.095692		-20.759300		-17.194238		7.387448		30.519565		25.772798		-7.799792		-12.548409		-16.746332		-21.713722		2.101460		12.937547		-21.915778		5.694561		1.314711		-23.215123		2.883129		-4.570368		-64.507547		-28.337696		-19.981053		66.174591		124.972947		4.562304		-2.175332		-32.945628		-94.786872		-34.069208		-40.666378		92.287824		143.508408		-1.010060		-7.860193		-19.351865		
2.924167		5.240755		-2.793729		96.176820		-0.036142		1.235132		0.724168		28.953899		-2.376233		-17.733219		-20.360231		-17.080528		7.573146		30.474613		25.510520		-7.670736		-12.538019		-16.399236		-21.715482		2.005651		13.045849		-21.745296		5.583043		1.400821		-24.011697		2.807949		-4.405371		-65.778768		-27.420312		-20.304930		65.422259		125.265177		4.393845		-2.503474		-32.774266		-95.478745		-32.971231		-40.657434		91.535849		144.018582		-0.559869		-8.189723		-19.162473		
2.928182		5.150377		-2.641389		96.239950		-0.036299		1.222482		0.716527		28.691078		-2.442297		-17.362568		-19.982660		-17.000553		7.766876		30.462490		25.445917		-7.527973		-12.436646		-16.224903		-21.687796		2.044859		13.088504		-21.606536		5.526633		1.320740		-24.232604		2.766649		-4.414915		-66.807999		-26.611457		-20.349423		64.753571		125.350649		4.357716		-2.502178		-32.729582		-96.163056		-31.986307		-40.448704		90.772051		144.170699		-0.392092		-8.174990		-19.112887		
2.932197		5.048013		-2.513169		96.235047		-0.036163		1.209761		0.708554		28.410195		-2.432309		-16.789023		-19.481482		-17.004833		8.052983		30.439662		25.245198		-7.401584		-12.216734		-15.847052		-21.589905		2.138687		13.182354		-21.380110		5.390562		1.127061		-24.839918		2.678068		-4.424866		-67.698325		-25.650729		-20.780456		63.974147		125.503195		4.124496		-2.608478		-32.685786		-96.583848		-30.734609		-40.323584		89.900670		144.416987		-0.256136		-8.216802		-19.082227		
